<svg width="40" height="40" viewBox="0 0 40 40" fill="none" xmlns="http://www.w3.org/2000/svg">
<path d="M22 18H18V30H22V18Z" fill="#FBFBFB"/>
<path d="M20 0C8.95002 0 0 8.95005 0 20C0 31.05 8.95002 40 20 40C31.0499 40 40 31.05 40 20C40 8.94995 31.05 0 20 0ZM20 36.0001C11.18 36.0001 3.99993 28.82 3.99993 20C3.99993 11.18 11.18 4.00004 20 4.00004C28.8199 4.00004 36 11.18 36 20C36 28.82 28.8199 36.0001 20 36.0001Z" fill="#FBFBFB"/>
<path d="M22 10.0001H18V14.0001H22V10.0001Z" fill="#FBFBFB"/>
</svg>
